<svg xmlns="http://www.w3.org/2000/svg" viewBox="0 0 16 16" width="16" height="16"><path d="M7.954 9.803a1.096 1.096 0 1 1 0-2.191 1.096 1.096 0 0 1 0 2.191m0-4.518a3.422 3.422 0 1 0 0 6.844 3.422 3.422 0 0 0 0-6.844" style="fill-opacity:1;fill-rule:nonzero;stroke:none;stroke-width:.133"/><path d="M7.954 5.285a1.166 1.166 0 1 0 .083 2.329 1.096 1.096 0 0 1 0 2.186 1.165 1.165 0 0 1-.084 2.329 3.422 3.422 0 1 0 0-6.844m3.435-1.337a.265.265 0 0 0-.375 0s-.117.115-.26.255a.116.116 0 0 1-.163 0l-.208-.205c.217.316-.089.659-.089.659l-.353.354a.266.266 0 0 0 .369.378c.007-.006.2-.192.283-.278.057-.059.117-.045.162-.001l.208.204c-.208-.304.066-.631.088-.657l.352-.349a.266.266 0 0 0-.013-.362" style="fill-opacity:1;fill-rule:nonzero;stroke:none;stroke-width:.133"/><path d="M10.294 4.658s.305-.342.089-.658l-.052-.051a.266.266 0 0 0-.375.375zm.877.791v-.003h-.024v-.003h-.008V5.44h-.011v-.003h-.008v-.003h-.008v-.003h-.011v-.003h-.005v-.003h-.005v-.003h-.005v-.003h-.005v-.003h-.005v-.003h-.005V5.41h-.005v-.003h-.005v-.003h-.003v-.003h-.005v-.003h-.003v-.003h-.005v-.003h-.003v-.003h-.003v-.003h-.005v-.003h-.003V5.38h-.003v-.003h-.005v-.003h-.003v-.003h-.003v-.003h-.003v-.003h-.003v-.003h-.003v-.003h-.003v-.003h-.003v-.003h-.003V5.35h-.003v-.005h-.003v-.003h-.003v-.003h-.003v-.003h-.003v-.003h-.003V5.33h-.003v-.003h-.003v-.003h-.003v-.003h-.003v-.003h-.003v-.003h-.003v-.003h-.003v-.003h-.003v-.003h-.003v-.003h-.003v-.005h-.003v-.003h-.003V5.29h-.003v-.003h-.003v-.005h-.003v-.005h-.003v-.005h-.003v-.003h-.003v-.005h-.003v-.005h-.003v-.005h-.003v-.005h-.003v-.005h-.003v-.005h-.003v-.005h-.003v-.008h-.003v-.005H10.9v-.008h-.003v-.005h-.003V5.2h-.003v-.005h-.003v-.008h-.003v-.011h-.003v-.011h-.003v-.011h-.003v-.011h-.003v-.011h-.003v-.024h-.003v-.026h-.003v-.058h.003v-.026h.003v-.019h.003V4.96h.003v-.011h.003v-.011h.003v-.013h.003v-.011h.003v-.008h.003v-.008h.003V4.89h.003v-.008h.003v-.011h.003v-.005h.003v-.008h.003v-.005h.003v-.008h.003V4.84h.003v-.008h.003v-.005h.003v-.008h.003v-.005h.003v-.005h.003v-.005h.003v-.005h.003v-.005h.003v-.005h.003v-.005h.003v-.005h.003v-.005h.003v-.003h.003v-.005h.003v-.005h.003v-.005h.003v-.005h.003v-.003h.003v-.005h.003v-.005h.003v-.003h.003V4.73h.003v-.003h.003v-.005h.003v-.005h.003v-.003h.003v-.005h.003v-.003h.003v-.005h.003v-.003h.003v-.003h.003V4.69h.003v-.003h.003v-.005h.003v-.003h.003v-.003h.003v-.005h.003v-.003h.003v-.003h.003V4.66h.003v-.003h.003v-.003h.003v-.003h.003v-.005h.003v-.003h.005v.003h.003v.003h.003v.003h.003v.003h.003v.003h.003v.003h.003v.003h.003v.003h.003v.003h.003v.003h.003v.003h.003v.003h.003v.003h.003v.003h.003v.003h.003v.003h.003v.003h.003v.003h.003V4.7h.003v.003h.003v.003h.003v.003h.003v.003h.003v.003h.003v.003h.003v.003h.003v.003h.003v.003h.003v.003h.003v.003h.003v.003h.003v.003h.003v.003h.003v.003h.003v.003h.003v.003h.003v.003h.003v.003h.003v.003h.003v.003h.003v.003h.003v.003h.003v.003h.003v.003h.003v.003h.003v.003h.003v.003h.003v.003h.003v.003h.003v.003h.003v.003h.003v.003h.003v.003h.003v.003h.003v.003h.003v.003h.003v.003h.003v.003h.003v.003h.003v.003h.003v.003h.003v.003h.003v.003h.003v.003h.003v.003h.003v.003h.003v.003h.003v.003h.003v.003h.003v.003h.003v.003h.003v.003h.003v.003h.003v.003h.003v.003h.003v.003h.003v.003h.003v.003h.003v.003h.003v.003h.003v.003h.003v.003h.003v.003h.003v.003h.005v.003h.003v.003h.003v.003h.003v.003h.003v.003h.003v.003h.003v.003h-.031v.003h.003v.003h.003v.003h.003v.003h.003v.003h.003v.003h.003v.003h.003v.003h.003v.003h.003v.003h.003v.003h.003v.003h.003v.003h.003v.003h.003v.003h.003v.003h.003v.003h.003v.003h.003v.003h.003v.003h.003v.003h.003v.003h.003v.003h.003v.003h.003v.003h.003v.003h.003v.003h.003V5h.003v.003h.003v.003h.003v.003h.003v.003h.003v.003h.003v.003h.003v.003h.003v.003h.003v.003h.003v.003h.003v.003h.003v.003h.003v.003h.003v.005h.003v.003h.003v.003h.003v.005h.003v.003h.003v.003h.003v.005h.003v.003h.003v.005h.003v.005h.003v.005h.003v.005h.003v.003h.003v.005h.003v.005h.003v.005h.003v.005h.003v.008h.003v.008h.003v.011h.003v.008h.003v.011h.003v.013h.003v.026h.003v.034h-.003v.029h-.003v.013h-.003v.008h-.003v.011h-.003V5.3h-.003v.008h-.003v.008h-.003v.005h-.003v.005h-.003v.005h-.003v.005h-.003v.005h-.003v.005h-.003v.005h-.003v.005h-.003v.003h-.003v.005h-.003v.003h-.003v.003h-.003v.005h-.003v.003h-.003v.003h-.003v.005h-.003v.003h-.003v.003h-.003v.003h-.003v.003h-.003v.003h-.003v.003h-.003v.003h-.003v.003h-.003v.003h-.003v.003h-.003v.003h-.003v.003h-.005v.003h-.003v.003h-.003v.003h-.003v.003h-.005v.003h-.003v.003h-.003v.003h-.005v.003h-.005v.003h-.005v.003h-.005v.003h-.005v.003h-.005v.003h-.003v.003h-.005v.003h-.005v.003h-.008v.003h-.008v.003h-.008v.003h-.011v.003h-.008v.003h-.008v.003h-.026v.003" style="fill-opacity:1;fill-rule:nonzero;stroke:none;stroke-width:.133"/></svg>