<svg xmlns="http://www.w3.org/2000/svg" viewBox="0 0 13 13" width="13" height="13"><path d="M6.463 7.965a.891.891 0 1 1 0-1.78.891.891 0 0 1 0 1.78m0-3.671a2.78 2.78 0 1 0 0 5.561 2.78 2.78 0 0 0 0-5.561" style="fill-opacity:1;fill-rule:nonzero;stroke:none;stroke-width:.133;fill:#fff"/><path d="M6.463 4.294a.947.947 0 1 0 .067 1.892.891.891 0 0 1 0 1.776.947.947 0 0 1-.068 1.892 2.78 2.78 0 1 0 0-5.561m2.791-1.086a.215.215 0 0 0-.305 0s-.095.093-.211.207a.094.094 0 0 1-.132 0l-.169-.167c.176.257-.072.535-.072.535l-.287.288a.216.216 0 0 0 .3.307 9 9 0 0 0 .23-.226c.046-.048.095-.037.132-.001l.169.166c-.169-.247.054-.513.071-.534l.286-.284a.216.216 0 0 0-.011-.294" style="fill-opacity:1;fill-rule:nonzero;stroke:none;stroke-width:.133;fill:#fff"/><path d="M8.364 3.785s.248-.278.072-.535l-.042-.041a.216.216 0 0 0-.305.305zm.713.643v-.002h-.019v-.002h-.007V4.42h-.009v-.002h-.007v-.002h-.007v-.002h-.009v-.002h-.004V4.41h-.004v-.002h-.004v-.002h-.004v-.002h-.004v-.002h-.004v-.006h-.004v-.002h-.004v-.002h-.002V4.39h-.004v-.002h-.002v-.002h-.004v-.002h-.002v-.002h-.002V4.38h-.004v-.002h-.002v-.007h-.002v-.002h-.004v-.002h-.002v-.002h-.002v-.002h-.002v-.002h-.002v-.002h-.002v-.002h-.002v-.002h-.002v-.002h-.002v-.006h-.002v-.004h-.002v-.002h-.002v-.002h-.002v-.002h-.002v-.002h-.002v-.004h-.002v-.002h-.002v-.002h-.002v-.002h-.002v-.002h-.002v-.002h-.002v-.002h-.002v-.002h-.002v-.002h-.002v-.002h-.002v-.004h-.002v-.002h-.002v-.009h-.002v-.002h-.002v-.004h-.002v-.004h-.002v-.004h-.002v-.002h-.002v-.004h-.002v-.004h-.002V4.27h-.002v-.004h-.002v-.004h-.002v-.004h-.002v-.004h-.002v-.007h-.002v-.004h-.023v-.007h-.002v-.004h-.002v-.007H8.85v-.004h-.002v-.007h-.002v-.009h-.002v-.009h-.002v-.009H8.84v-.009h-.002v-.009h-.002V4.15h-.002v-.021h-.002v-.047h.002v-.021h.002v-.015h.002V4.03h.002v-.009h.002v-.009h.002v-.011h.002v-.009h.002v-.007h.002v-.007h.002v-.005h.002v-.007h.002v-.009h.002v-.004h.002v-.007h.002v-.004h.002v-.007h.002v-.002h.002v-.007h.002v-.004h.002v-.007h.002v-.004h.002v-.004h.002v-.004h.002v-.004h.002v-.004h.002v-.004h.002v-.004h.002v-.004h.002v-.004h.002v-.002h.002v-.004h.002v-.004h.002v-.004H8.9v-.004h.002v-.002h.002v-.004h.002v-.004h.002v-.002h.002v-.006h.002v-.002h.002v-.004h.002v-.004h.002v-.002h.002v-.004h.002v-.002h.002v-.004h.002v-.002h.002v-.002h.002v-.006h.002v-.002h.002v-.004h.002v-.002h.002v-.002h.002v-.004h.002v-.002h.002v-.002h.002v-.007h.002v-.002h.002v-.002h.002V3.78h.002v-.004h.002v-.002h.004v.002h.002v.002h.002v.002h.002v.002h.002v.002h.002v.002h.002v.002h.002v.002h.002v.002h.002v.002h.002v.002h.002v.002h.002V3.8h.002v.002h.002v.002h.002v.002h.002v.002h.002v.002h.002v.009h.002v.002H9v.002h.002v.002h.002v.002h.002v.002h.002v.002h.002v.002h.002v.002h.002v.002h.002v.002h.002v.002h.002v.002h.002v.002h.002v.002h.002v.002h.002v.002h.002v.002h.002v.002h.002v.002h.002v.002h.002v.002h.002v.002h.002v.002h.002v.002h.002v.002h.002v.002h.002v.002h.002v.002h.002v.002h.002v.002h.002v.002h.002v.002h.002v.002h.002v.002h.002v.002h.002v.002h.002v.002h.002v.002h.002v.002h.002v.002h.002v.002h.002v.002h.002v.002h.002v.002h.002v.002h.002v.002h.002v.002h.002v.002h.002v.002h.002v.002h.002v.002H9.1v.002h.002v.002h.002v.002h.002v.002h.002v.002h.002v.002h.002v.002h.002v.002h.002v.002h.002v.002h.002v.002h.002v.002h.002v.002h.002v.002h.004v.002h.002v.002h.002v.002h.002v.002h.002v.002h.002v.002h.002v.002h-.025v.002h.002v.002h.002v.002h.002v.002h.002v.002h.002v.002h.002v.002h.002v.002h.002v.002h.002v.002h.002v.002h.002v.002h.002v.002h.002v.002h.002v.002h.002v.002h.002v.002h.002v.002h.002v.002h.002v.002h.002v.002h.002v.002h.002v.002h.002v.002h.002v.002h.002v.002h.002v.002h.002v.046h.002v.002h.002v.002h.002v.002h.002v.002h.002v.002h.002v.002h.002v.002h.002v.002h.002v.002h.002v.002h.002v.002h.002v.002h.002v.002h.002v.004h.002v.002h.002v.002h.002v.004h.002v.002h.002v.002h.002v.004h.002v.002h.002v.004h.002v.004h.002v.004h.002v.004h.002v.002h.002v.004h.002v.004h.002v.004h.002v.004h.002v.007h.002v.007h.002v.009h.002v.007h.002v.009h.002v.011h.002v.021h.002v.028h-.002v.024h-.002v.011h-.002v.007h-.002v.009h-.002v.011h-.002v.007h-.002v.007h-.002v.004h-.002v.004h-.002v.004h-.002v.004h-.002v.004h-.002v.004h-.002v.004h-.002v.004h-.002v.002h-.002v.004h-.002v.002h-.002v.002h-.002v.004h-.002v.002h-.002v.002h-.002v.004h-.002v.002h-.002v.002h-.002v.002h-.002v.002h-.002v.002h-.002v.002h-.002v.002h-.002v.002h-.002v.002h-.002v.002h-.002v.002h-.002v.002h-.004V4.4h-.002v.002h-.002v.002h-.002v.002h-.004v.002h-.002v.002h-.002v.002h-.004v.002h-.004v.002h-.004v.002h-.004v.002h-.004v.002h-.004v.002h-.002v.002h-.004v.002h-.004v.002h-.007v.002h-.007v.002h-.007v.002h-.009v.002h-.007v.002h-.007v.002H9.06v.002" style="fill-opacity:1;fill-rule:nonzero;stroke:none;stroke-width:.133;fill:#fff"/></svg>