<svg xmlns="http://www.w3.org/2000/svg" viewBox="0 0 500 500"><path d="M248.565 306.358c-18.925 0-34.26-15.337-34.26-34.255 0-18.922 15.335-34.265 34.26-34.265 18.92 0 34.254 15.343 34.254 34.265 0 18.918-15.334 34.255-34.254 34.255m0-141.194c-59.062 0-106.942 47.877-106.942 106.931 0 59.065 47.88 106.942 106.942 106.942 59.057 0 106.934-47.877 106.934-106.942 0-59.054-47.877-106.931-106.934-106.931" style="fill-opacity:1;fill-rule:nonzero;stroke:none;stroke-width:.133"/><path d="M248.565 165.164c-20.397 0-36.524 16.467-36.524 36.441 0 21.227 18.062 37.942 39.125 36.341 17.705 1.334 31.653 16.105 31.653 34.157 0 18.041-13.948 32.818-31.653 34.152 18.875 1.372 33.764 17.106 33.764 36.333 0 20.104-16.275 36.403-36.365 36.449 59.057 0 106.934-47.877 106.934-106.942 0-59.054-47.877-106.931-106.934-106.931m107.348-41.771a8.296 8.296 0 0 0-11.733 0s-3.657 3.594-8.114 7.982a3.62 3.62 0 0 1-5.08 0c-2.639-2.598-5.004-4.923-6.504-6.398 6.767 9.883-2.787 20.584-2.787 20.584l.001.001c-.147.144-10.883 10.894-11.03 11.068a8.297 8.297 0 0 0 11.531 11.827c.231-.185 6.26-6.008 8.829-8.676 1.776-1.844 3.645-1.401 5.049-.021 2.632 2.593 4.99 4.913 6.486 6.383-6.495-9.488 2.049-19.728 2.743-20.531 0 0 10.884-10.772 11.012-10.919a8.297 8.297 0 0 0-.403-11.3" style="fill-opacity:1;fill-rule:nonzero;stroke:none;stroke-width:.133"/><path d="m321.693 145.563.003-.001-.001-.001s9.546-10.691 2.795-20.572l-1.623-1.596a8.298 8.298 0 0 0-11.734 11.732zm27.419 24.722v-.082h-.745v-.083h-.248v-.083h-.331v-.082h-.248v-.083h-.248v-.083h-.331v-.083h-.166v-.082h-.165v-.083h-.166v-.083h-.165v-.082h-.166v-.083h-.165v-.083h-.165v-.082h-.166v-.084h-.082v-.082h-.166v-.083h-.083v-.083h-.165v-.082h-.083v-.083h-.083v-.083h-.165v-.083h-.083v-.082h-.083v-.083h-.165v-.083h-.083v-.082h-.082v-.083h-.084v-.083h-.082v-.082h-.083v-.084h-.083v-.082h-.082v-.083h-.083v-.083h-.083v-.165h-.082v-.083h-.083v-.082h-.083v-.083h-.083v-.083h-.082v-.083h-.083v-.082h-.083v-.083h-.082v-.083h-.083v-.082h-.083v-.084h-.083v-.082h-.082v-.083h-.083v-.083h-.083v-.082h-.082v-.166h-.083v-.082h-.083v-.166h-.082v-.083h-.084v-.165h-.082v-.165h-.083v-.166h-.083v-.083h-.082v-.165h-.083v-.166h-.083v-.165h-.083v-.166h-.082v-.165h-.083v-.165h-.083v-.166h-.082v-.248h-.083v-.166h-.083v-.248h-.082v-.165h-.084v-.248h-.082v-.166h-.083v-.248h-.083v-.331h-.082v-.331h-.083v-.331h-.083v-.331h-.082v-.331h-.083v-.744h-.083v-.828h-.083v-1.819h.083v-.828h.083v-.579h.083v-.579h.082v-.331h.083v-.331h.083v-.414h.082v-.331h.083v-.248h.083v-.248h.082v-.248h.084v-.248h.082v-.331h.083v-.166h.083v-.248h.082v-.166h.083v-.248h.083v-.165h.082v-.248h.083v-.166h.083v-.248h.083v-.166h.082v-.165h.083v-.165h.083v-.166h.082v-.165h.084v-.166h.082v-.165h.083v-.165h.083v-.166h.082v-.083h.083v-.165h.083v-.166h.082v-.165h.083v-.166h.083v-.082h.083v-.166h.082v-.165h.083v-.083h.083v-.166h.082v-.082h.083v-.166h.083v-.165h.083v-.083h.082v-.165h.083v-.083h.083v-.165h.082v-.083h.083v-.083h.083v-.166h.082v-.082h.084v-.166h.082v-.082h.083v-.083h.083v-.166h.082v-.082h.083v-.083h.083v-.165h.082v-.083h.083v-.083h.083v-.082h.083v-.166h.082v-.083h.166v.083h.082v.082h.084v.084h.082v.082h.083v.083h.083v.083h.082v.082h.083v.083h.083v.083h.082v.082h.083v.083h.083v.083h.083v.083h.082v.082h.083v.083h.083v.083h.082v.082h.083v.084h.083v.082h.083v.083h.083v.083h.082v.082h.083v.083h.083v.083h.082v.082h.083v.083h.083v.083h.083v.083h.082v.082h.083v.083h.083v.083h.082v.082h.083v.083h.083v.083h.082v.083h.084v.083h.082v.082h.083v.083h.083v.083h.082v.082h.083v.083h.083v.083h.083v.083h.082v.082h.083v.083h.083v.083h.082v.082h.083v.083h.083v.083h.082v.082h.084v.084h.082v.082h.083v.083h.083v.083h.082v.082h.083v.083h.083v.083h.082v.083h.083v.082h.083v.083h.083v.083h.082v.082h.083v.083h.083v.083h.082v.082h.084v.084h.082v.082h.083v.083h.083v.083h.082v.082h.083v.083h.083v.083h.082v.082h.083v.083h.083v.083h.083v.083h.082v.082h.083v.083h.083v.083h.082v.082h.084v.084h.082v.082h.083v.083h.083v.083h.165v.082h.083v.083h.082v.083h.083v.082h.083v.083h.083v.083h.082v.083H353v.082h.083v.083h.082v.083h.083v.082h.083v.083h.083v.083h.083v.083h.082v.083h.083v.082h.083v.083h.082v.083h.083v.082h.083v.083h.083v.083h.082v.083h.083v.082h.083v.083h.082v.083h.083v.082h.083v.083h.082v.083h.084v.082h.082v.084h.083v.082h.083v.083h.082v.083h.083v.082h.083v.083h.083v.083h.082v.083h.083v.082h.083v.083h.082v.083h.083v.082h.083v.083h.082v.083h.084v.082h.082v.084h.083v.082h.083v.083h.082v.083h.083v.165h.083v.083h.082v.082h.083v.166h.083v.083h.083v.082h.082v.166h.083v.082h.083v.166h.082v.166h.084v.165h.082v.165h.083v.083h.083v.166h.082v.165h.083v.165h.083v.166h.082v.248h.083v.248h.083v.331h.083v.248h.082v.332h.083v.413h.083v.828h.082v1.075h-.082v.91h-.083v.413h-.083v.249h-.082v.331h-.083v.248h-.083v.248h-.083v.248h-.082v.166h-.083v.165h-.083v.166h-.082v.165h-.083v.166h-.083v.165h-.082v.165h-.084v.166h-.082v.082h-.083v.166h-.083v.083h-.082v.083h-.083v.165h-.083v.083h-.083v.083h-.082v.165h-.083v.083h-.083v.082h-.082v.083h-.083v.083h-.083v.082h-.082v.084h-.084v.082h-.082v.083h-.083v.083h-.083v.082h-.082v.083h-.083v.083h-.165v.082h-.083v.083h-.083v.083h-.083v.083h-.165v.082h-.083v.083h-.082v.083h-.166v.082h-.166v.084h-.165v.082h-.165v.083h-.166v.083h-.165v.082h-.083v.083h-.165v.083h-.166v.082h-.248v.083h-.248v.083h-.249v.083h-.33v.082h-.248v.083h-.249v.083h-.827v.082" style="fill-opacity:1;fill-rule:nonzero;stroke:none;stroke-width:.133"/></svg>